PathFileType	4	(X/Y/Z)	c:/Users/goper/Files/vsCode/490R/osim_files/C04/C04_SSWS_06.trc
DataRate	CameraRate	NumFrames	NumMarkers	Units                	OrigDataRate	OrigDataStartFrame	OrigNumFrames
250.00	250.00	10	36	mm	250.0	2102	3362
                Frame#	Time	LPSIS			LASIS			LTH1			LTH2			LTH3			LTH4			LLFE			LMFE			LSH1			LSH2			LSH3			LSH4			LLMAL			LMMAL			LCAL			LMTP5			LTOE			LMTP1			RPSIS			RASIS			RTH1			RTH2			RTH3			RTH4			RLFE			RMFE			RSH1			RSH2			RSH3			RSH4			RLMAL			RMMAL			RCAL			RMTP1			RTOE			RMTP5		
		X1	Y1	Z1	X2	Y2	Z2	X3	Y3	Z3	X4	Y4	Z4	X5	Y5	Z5	X6	Y6	Z6	X7	Y7	Z7	X8	Y8	Z8	X9	Y9	Z9	X10	Y10	Z10	X11	Y11	Z11	X12	Y12	Z12	X13	Y13	Z13	X14	Y14	Z14	X15	Y15	Z15	X16	Y16	Z16	X17	Y17	Z17	X18	Y18	Z18	X19	Y19	Z19	X20	Y20	Z20	X21	Y21	Z21	X22	Y22	Z22	X23	Y23	Z23	X24	Y24	Z24	X25	Y25	Z25	X26	Y26	Z26	X27	Y27	Z27	X28	Y28	Z28	X29	Y29	Z29	X30	Y30	Z30	X31	Y31	Z31	X32	Y32	Z32	X33	Y33	Z33	X34	Y34	Z34	X35	Y35	Z35	X36	Y36	Z36

2102	8.40400	-1101.23364	958.52594	257.84619	-1275.37329	939.08130	341.18948	-1159.25146	683.00311	391.33478	-1175.22827	622.85297	383.09903	-1223.80835	701.70850	402.34396	-1249.45203	642.82874	392.38647	-1246.67688	431.83835	375.90482	-1244.28699	413.59235	261.26074	-1146.23486	406.44791	389.04620	-1102.80249	386.53088	386.68930	-1178.78748	358.72385	388.50797	-1139.54944	332.58395	387.22235	-913.55414	222.41269	370.50186	-932.32611	236.61424	283.34033	-861.39838	279.55154	326.04153	-916.98187	79.16439	362.89908	-953.84100	75.17844	310.77090	-912.41840	100.97868	259.61163	-1108.38745	966.44965	182.99130	-1289.02600	946.24591	138.77136	-1220.90649	716.85687	47.85730	-1232.91821	657.01093	62.75033	-1282.99841	735.94586	61.36385	-1304.98047	679.40613	76.59283	-1321.13586	457.32849	128.22766	-1305.14343	454.72150	235.13956	-1256.91956	322.99887	105.08437	-1262.41565	277.56860	113.11567	0.00000	0.00000	0.00000	-1308.21533	278.51953	119.73686	-1267.84509	76.35548	147.91167	-1282.64319	79.73667	231.40468	-1204.10864	45.31078	191.24771	-1413.21326	17.63949	237.60841	-1431.87976	46.45993	207.64229	-1403.80859	18.45510	143.30002
2103	8.40800	-1105.42139	959.17926	257.83701	-1279.93823	939.53326	340.67764	-1165.73657	683.26416	391.03528	-1182.44165	623.20312	382.89288	-1230.00549	702.52521	402.01028	-1256.38977	643.88641	391.84174	-1256.31299	432.95688	375.43915	-1253.27490	415.01123	260.75812	-1156.53882	407.41394	388.15347	-1112.46729	387.51788	386.26434	-1188.65967	359.84814	387.88351	-1149.45337	333.61142	386.63516	-923.73608	223.14188	370.39893	-942.36847	236.34378	283.61771	-871.87207	279.17578	326.12061	-929.10175	79.78580	364.34912	-966.11963	75.47937	312.58554	-924.77026	100.36094	260.87534	-1112.42590	967.10614	182.96159	-1298.84546	950.25470	130.79524	-1224.00867	717.48163	47.53620	-1236.51086	657.25348	62.66023	-1286.36328	736.18817	61.29148	-1307.91870	679.66779	76.29372	-1322.25598	457.21356	127.57507	-1306.85913	454.56750	234.73737	-1257.92896	322.95953	104.54257	-1262.30640	277.79041	112.75150	0.00000	0.00000	0.00000	-1308.85254	279.24106	118.28537	-1267.91809	76.28126	147.86693	-1282.73962	79.76940	231.44566	-1204.12073	45.42833	191.19855	-1413.23657	17.60622	237.56364	-1431.88147	46.41885	207.57590	-1403.80457	18.31056	143.23820
2104	8.41200	-1109.62292	959.79266	257.88211	-1284.47546	939.99414	340.17789	-1172.17346	683.52924	390.83624	-1189.47180	623.65204	382.62723	-1236.52332	703.31885	401.66400	-1263.39197	644.95557	391.36935	-1265.79541	434.32834	374.91367	-1262.44946	416.44690	260.25800	-1166.12952	408.48093	387.61395	-1122.14893	388.47330	385.74219	-1198.53723	360.99088	387.35596	-1159.40173	334.54227	386.11884	-934.17944	223.54579	370.28809	-953.33997	236.37709	282.77063	-881.79993	278.55502	325.11795	-941.62878	80.06544	365.80750	-978.61884	75.44430	314.21854	-937.24469	99.51214	262.21143	-1116.55750	967.79181	183.00267	-1302.77905	951.04761	130.33591	-1227.21802	718.06677	47.22509	-1236.85828	658.46588	61.20399	-1289.51892	736.49341	61.11350	-1304.60364	682.08252	72.67956	-1323.53857	456.94128	127.08099	-1308.68835	454.50784	234.19157	-1258.85181	322.91418	104.17109	-1263.08740	277.80045	112.29728	0.00000	0.00000	0.00000	-1310.56970	279.61459	117.34285	-1267.94507	76.24316	147.80559	-1282.78833	79.81450	232.06071	-1204.14221	45.53744	191.15082	-1413.23792	17.60084	237.58374	-1431.91956	46.35274	207.51639	-1403.81616	18.19129	143.17725
2105	8.41600	-1113.80408	960.45740	257.87769	-1288.98621	940.46283	339.69009	-1178.63831	683.84344	390.65286	-1196.61218	624.06354	382.37329	-1242.60999	704.29041	401.39804	-1270.24963	646.20306	390.94876	-1275.24292	435.66531	374.42459	-1271.52087	417.99802	259.69876	-1175.60876	409.70221	387.13626	-1131.64380	389.39719	385.25537	-1208.41760	362.17551	386.82013	-1169.38831	335.68176	385.62134	-944.73993	223.82169	370.07532	-963.94684	235.93739	282.51108	-891.78839	277.69589	324.13596	-954.17218	80.24383	367.29791	-991.19946	75.26146	315.94702	-949.79840	98.54013	263.50409	-1120.51953	968.50848	183.04245	-1306.75500	951.63055	130.36493	-1230.39612	718.61902	46.92823	-1239.57434	658.99988	60.86363	-1291.80408	736.70300	61.07817	-1312.73938	679.90247	75.85423	-1324.41138	456.88641	126.15945	0.00000	0.00000	0.00000	-1259.69800	322.91653	103.72559	-1265.59595	277.05603	113.20509	0.00000	0.00000	0.00000	-1316.58423	275.17923	122.49000	-1268.01453	76.19980	147.76698	-1282.82617	79.79430	232.47240	-1204.20105	45.59964	191.15005	-1413.22754	17.61058	237.62375	-1432.00818	46.23002	207.49005	-1403.84900	18.03601	143.09425
2106	8.42000	-1118.03650	961.10760	257.94852	-1293.47119	940.93835	339.21411	-1185.13635	684.20874	390.46176	-1203.65564	624.58490	382.20233	-1249.01257	705.21252	401.15567	-1276.93115	647.45837	390.69833	-1284.55481	437.19742	373.86606	-1280.79150	419.51779	259.29407	-1185.03955	410.74353	386.49756	-1141.09741	390.28528	384.74432	-1218.09131	363.48709	386.30341	-1179.43994	336.60696	385.06284	-955.42401	223.90244	369.88171	-974.78058	235.28514	282.19220	-901.85413	276.54269	323.14737	-967.03748	80.23591	368.68732	-1004.78351	75.48910	317.57913	-963.64722	97.08780	265.57471	-1124.65796	969.13055	183.01349	-1310.68726	952.37561	129.73154	-1233.37903	719.19305	46.62461	-1242.43237	659.50482	60.54815	-1295.21985	736.98584	60.78730	-1315.56970	680.05481	75.58196	-1325.46887	456.63815	125.56242	0.00000	0.00000	0.00000	-1260.51392	322.93225	103.41936	-1266.22717	277.06784	112.86279	0.00000	0.00000	0.00000	-1320.89417	271.77042	126.37844	-1268.10522	76.16147	147.71935	-1282.84436	76.84966	227.83907	-1204.26135	45.68610	191.15160	-1413.20337	17.63132	237.66986	-1432.09949	46.06185	207.47531	-1403.94836	17.86873	143.06613
2107	8.42400	-1122.26233	961.75500	258.03229	-1297.93140	941.41974	338.74991	-1191.65735	684.58704	390.33163	-1210.79199	625.07446	382.01318	-1255.27246	706.24072	400.93201	-1285.60144	647.89667	389.16830	-1293.82153	438.75241	373.36652	-1287.73169	421.92456	258.32129	-1194.38611	411.88419	385.90259	-1151.08789	391.05988	383.89819	-1227.94312	364.76248	385.78812	-1189.47327	337.65027	384.50797	-966.41553	223.63571	369.56592	-985.74365	234.85515	281.63843	-912.37488	275.30389	321.86142	-980.05597	80.03435	370.08023	-1017.80194	75.11413	319.07529	-976.67932	95.65561	266.96609	-1128.72058	969.78052	183.09441	-1314.49707	953.01270	129.24023	-1236.41382	719.78656	46.31884	-1245.04407	660.06964	60.20163	-1298.31323	737.24481	60.51583	-1318.39587	680.18317	75.32164	-1326.36426	456.53320	124.98000	0.00000	0.00000	0.00000	-1261.34583	322.93304	103.11658	-1265.97815	277.12225	112.75773	0.00000	0.00000	0.00000	-1322.31250	270.73239	127.31116	-1268.15991	76.14015	147.65315	-1282.97217	76.87347	227.81023	-1204.31213	45.73944	191.14406	-1413.16553	17.66266	237.72179	-1432.16516	45.92535	207.40570	-1403.96899	17.74380	143.00264
2108	8.42800	-1126.40234	962.44855	258.09097	-1302.36792	941.90601	338.29727	-1198.00684	685.05719	390.28189	-1217.77771	625.69714	381.88614	-1261.41797	707.34143	400.67688	-1292.19116	649.35895	388.86154	-1302.86353	440.43515	372.79742	-1298.82861	422.87979	258.23456	-1203.75842	413.07401	385.28845	-1160.55969	391.77390	383.16486	-1237.69580	366.13297	385.09363	-1199.39038	338.64713	383.93341	-977.18719	223.31282	369.34396	-997.39825	233.41054	282.11203	-922.32458	273.70148	321.38910	-993.33844	79.70762	371.42004	-1031.07751	74.66813	320.53534	-989.84039	94.07165	268.34973	-1132.63074	970.49860	183.21570	-1318.44031	953.82257	128.96181	-1239.13562	720.44983	46.04360	-1247.74353	660.55829	59.98433	-1301.44629	737.46552	60.23105	-1317.36731	681.87958	72.34043	-1327.13574	456.54044	124.15240	0.00000	0.00000	0.00000	-1261.91150	323.01636	102.89343	-1266.63660	277.15308	112.58034	0.00000	0.00000	0.00000	-1321.63550	271.41357	126.09972	-1268.24060	76.13518	147.63237	-1283.06592	76.86320	227.68616	-1204.33325	45.84567	191.11414	-1413.11511	17.70421	237.77928	-1432.24426	45.82627	207.34804	-1403.99426	17.65257	142.93451
2109	8.43200	-1130.51392	963.15430	258.22501	-1306.78162	942.39618	337.85605	-1204.36340	685.56714	390.22186	-1224.68982	626.32721	381.71027	-1267.54260	708.44385	400.51089	-1298.68542	650.74188	388.69836	-1311.85999	442.12756	372.23761	-1308.22766	424.51562	257.81189	-1212.94678	414.16113	384.57977	-1170.07556	392.50024	382.53073	-1247.25293	367.48370	384.59973	-1209.31763	339.62503	383.41168	-988.15662	222.79874	369.04108	-1007.57526	232.49142	281.18900	-931.99670	271.91071	319.91730	-1006.80151	79.24650	372.72467	-1044.49109	74.11980	321.91125	-1003.27435	92.36159	269.66968	-1136.65234	971.18506	183.29199	-1322.18530	954.53955	128.34743	-1242.12183	720.97333	45.82106	-1250.38928	661.04065	59.74353	-1304.48694	737.70801	59.92627	-1323.92212	680.41321	74.80496	-1328.02856	456.30878	123.67677	-1254.27405	479.13522	231.72499	-1262.36243	323.10989	102.73827	-1267.13477	277.60587	111.04220	0.00000	0.00000	0.00000	-1319.65979	273.16235	123.55567	-1268.29932	76.17178	147.59839	-1283.09680	76.98050	227.62560	-1204.32080	45.95509	191.10316	-1413.05249	17.75557	237.84210	-1432.28564	45.72887	207.25435	-1404.03101	17.58507	142.86884
2110	8.43600	-1134.63794	963.86469	258.37314	-1311.17346	942.88916	337.42615	-1210.69055	686.10962	390.20578	-1231.63049	627.09583	381.50308	-1271.87891	710.12109	401.09061	-1305.37280	652.23401	388.44382	-1320.72937	443.89902	371.74289	-1317.35156	426.27957	257.38959	-1222.03369	415.30203	383.88916	-1179.25732	393.32431	381.92120	-1256.89465	368.74844	383.85471	-1219.14502	340.69354	382.86584	-999.27368	222.09720	368.73154	-1018.55524	231.20712	280.85605	-942.40900	269.74472	319.10123	-1020.49261	78.61800	373.96121	-1058.26282	73.49631	323.27930	-1016.84534	90.55415	271.02774	-1140.75476	971.76550	183.33453	-1325.87781	955.05182	127.87413	-1245.12415	721.43903	45.67257	-1252.90857	661.47449	59.44031	-1307.39587	737.91132	59.62822	-1326.56934	680.43549	74.62912	-1328.91052	456.21536	123.09968	-1255.84497	478.94681	231.26118	-1262.82336	323.19269	102.59310	-1267.40784	277.74835	110.90240	0.00000	0.00000	0.00000	-1317.18213	275.32715	120.49060	-1268.37585	76.16969	147.61543	-1283.18066	77.09102	227.51474	-1204.37622	46.02502	191.13420	-1412.97803	17.81634	237.90996	-1432.30920	45.68901	207.17892	-1404.04688	17.53513	142.84312
2111	8.44000	-1138.79272	964.50104	258.45041	-1315.54443	943.38397	337.00745	-1216.90222	686.65503	390.20630	-1238.50574	627.77618	381.56381	-1277.97583	711.26733	400.99374	-1311.99646	653.59277	388.23022	-1329.57458	445.65695	371.20969	-1326.28125	428.14081	256.94296	-1230.85205	416.57095	383.44656	-1188.45312	393.51370	380.77322	-1266.60291	369.93973	383.19513	-1228.95984	341.55511	382.21005	-1010.47998	221.11803	368.38773	-1029.80505	229.71625	280.54279	-952.71979	267.36420	318.36078	-1034.51794	77.86012	375.15402	-1071.99756	72.67593	324.61719	-1030.62830	88.63825	272.40390	-1144.52466	972.41211	183.45723	-1329.84094	955.84357	127.39311	-1247.94336	721.93829	45.49768	-1255.27197	662.02118	59.12268	-1310.38391	738.01550	59.37798	-1329.03748	680.59192	74.36302	-1329.59265	456.22198	122.54671	-1257.25049	478.78360	230.87758	-1263.24915	323.23453	102.52258	-1267.61914	277.85690	110.82478	0.00000	0.00000	0.00000	-1314.99890	277.25632	117.71603	-1268.44299	76.19811	147.62563	-1283.20850	77.07188	227.42191	-1204.37268	46.13283	191.11992	-1412.89258	17.88614	237.98262	-1432.35413	45.63883	207.12718	-1404.11975	17.42113	142.85316
